# xmcd CD database file
#
# Track frame offsets:
#	150
#	13885
#	26410
#	45685
#	60882
#	76782
#	92130
#	106677
#	125377
#	141192
#	155130
#	172275
#	193152
#	210090
#	224732
#	242267
#	256522
#	271684
#	285785
#
# Disc length: 4062 seconds
#
# Revision: 0
# Processed by: cddbd v1.5.1PL0 Copyright (c) Steve Scherf et al.
# Submitted via: CDex 1.51
#
DISCID=f70fdc13
DTITLE=Norah Jones - Feels Like Home (A)
DYEAR=2004
DGENRE=Jazz
TTITLE0=I Turned Your Picture To The Wall
TTITLE1=Moon Song
TTITLE2=Sleepless Nights
TTITLE3=Sunrise
TTITLE4=What Am I To You
TTITLE5=Those Sweet Words
TTITLE6=Carnival Town
TTITLE7=In The Morning
TTITLE8=Be Here To Love Me
TTITLE9=Creepin' In
TTITLE10=Toes
TTITLE11=Humble Me
TTITLE12=Above Ground
TTITLE13=The Long Way Home
TTITLE14=The Prettiest Thing
TTITLE15=Don't Miss You At All
TTITLE16=Come Away With Me
TTITLE17=Don't Know Why
TTITLE18=Nighting Ale
EXTD=YEAR: 2004
EXTT0=
EXTT1=
EXTT2=
EXTT3=
EXTT4=
EXTT5=
EXTT6=
EXTT7=
EXTT8=
EXTT9=
EXTT10=
EXTT11=
EXTT12=
EXTT13=
EXTT14=
EXTT15=
EXTT16=
EXTT17=
EXTT18=
PLAYORDER=
